<svg width="100" height="98" viewBox="0 0 100 98" fill="none" xmlns="http://www.w3.org/2000/svg"><path fill-rule="evenodd" clip-rule="evenodd" d="M50 0C22.375 0 0 22.4821 0 50.2394 0 72.4703 14.3125 91.2473 34.1875 97.904c2.5.4396 3.4375-1.0676 3.4375-2.3863 0-1.1932-.0625-5.1496-.0625-9.3571C25 88.4841 21.75 83.0834 20.75 80.2574c-.5625-1.4443-3-5.9031-5.125-7.0963-1.75-.942-4.25-3.2655-.0625-3.3283 3.9375-.0628 6.75 3.6423 7.6875 5.1495 4.5 7.5987 11.6875 5.4635 14.5625 4.1447.4375-3.2655 1.75-5.4635 3.1875-6.7195-11.125-1.256-22.75-5.5891-22.75-24.8057 0-5.4635 1.9375-9.985 5.125-13.5018-.5-1.256-2.25-6.4055.5-13.3134 0 0 4.1875-1.3188 13.75 5.1495 4-1.1304 8.25-1.6956 12.5-1.6956s8.5.5652 12.5 1.6956c9.5625-6.5311 13.75-5.1495 13.75-5.1495 2.75 6.9079 1 12.0574.5 13.3134C80.0625 37.6168 82 42.0755 82 47.6018c0 19.2794-11.6875 23.5497-22.8125 24.8057 1.8125 1.57 3.375 4.5844 3.375 9.2943 0 6.7195-.0625 12.1203-.0625 13.8159 0 1.3187.9375 2.8887 3.4375 2.3863 9.9257-3.3672 18.5507-9.7771 24.6611-18.3274C96.709 71.0262 99.997 60.7657 100 50.2394 100 22.4821 77.625 0 50 0z" fill="#AE8F22"/></svg>