<svg width="92" height="92" viewBox="0 0 92 92" fill="none" xmlns="http://www.w3.org/2000/svg"><path fill-rule="evenodd" clip-rule="evenodd" d="M.00000114 7.68619c0-2.0385.80979186-3.99351 2.25122886-5.43495C3.69267.809802 5.64768.00001025 7.68618.00001025H84.3055C85.3157-.0016397 86.3163.195982 87.25.581562c.9338.385579 1.7823.951548 2.497 1.665488.7148.71395 1.2817 1.56186 1.6682 2.49518.3866.93333.5853 1.93374.5848 2.94396V84.3055c.0011 1.0104-.197 2.0111-.5831 2.9449-.386.9337-.9524 1.7822-1.6667 2.4969-.7142.7147-1.5624 1.2815-2.496 1.668-.9335.3866-1.9342.5853-2.9446.5847H7.68618c-1.00971 0-2.00953-.1989-2.94234-.5855-.9328-.3865-1.7803-.953-2.49409-1.6672-.71378-.7142-1.279853-1.562-1.665874-2.495-.386021-.933-.58442422-1.9329-.58387486-2.9427V7.68619zM36.4153 35.0771h12.4576v6.256C50.6711 37.7367 55.2711 34.5 62.1836 34.5c13.2522 0 16.3928 7.1635 16.3928 20.3069v24.3466H65.1653V57.8011c0-7.4855-1.7982-11.7091-6.3648-11.7091-6.3354 0-8.97 4.554-8.97 11.7091v21.3524H36.4153V35.0771zm-23 43.5035h13.4152V34.5H13.4153v44.0806zM28.75 20.1229c.0253 1.1486-.1791 2.2908-.6012 3.3593-.4221 1.0686-1.0533 2.0421-1.8567 2.8634-.8034.8213-1.7628 1.4738-2.8218 1.9193-1.0591.4455-2.1964.675-3.3453.675-1.1489 0-2.2862-.2295-3.3453-.675-1.059-.4455-2.0183-1.098-2.8218-1.9193-.8034-.8213-1.4346-1.7948-1.8567-2.8634-.4221-1.0685-.6265-2.2107-.6012-3.3593.0496-2.2546.9802-4.4001 2.5922-5.9771 1.6121-1.577 3.7776-2.46 6.0328-2.46s4.4207.883 6.0328 2.46c1.612 1.577 2.5426 3.7225 2.5922 5.9771z" fill="#AE8F22"/></svg>