<svg width="80" height="80" viewBox="0 0 80 80" fill="none" xmlns="http://www.w3.org/2000/svg"><path d="M76.2707 12.6408L65.931 2.31068c-.7293-.73259-1.5962-1.313845-2.5509-1.710384C62.4254.203757 61.4018-.00024776 60.368 2.3e-7c-2.1067 0-4.0873.82524277-5.5727 2.31067977L43.6692 13.4369c-.7325.7294-1.3138 1.5963-1.7103 2.551-.3965.9547-.6005 1.9783-.6003 3.0121 0 2.1068.8252 4.0874 2.3106 5.5728l8.1358 8.1359c-1.9044 4.1977-4.5521 8.0164-7.8154 11.2719-3.2551 3.2712-7.0734 5.9286-11.2716 7.8446l-8.1358-8.1359c-.7294-.7326-1.5963-1.3138-2.551-1.7104-.9547-.3965-1.9783-.6005-3.0121-.6003-2.1067 0-4.0873.8253-5.5727 2.3107L2.31065 54.8058c-.73348.7308-1.315225 1.5993-1.711776 2.5557-.396551.9564-.60007708 1.9818-.59886865 3.0171 0 2.1068.82523065 4.0874 2.31064465 5.5729L12.6309 76.2718C14.9998 78.6505 18.2716 80 21.6307 80c.7088 0 1.3884-.0583 2.0583-.1748 13.0872-2.1553 26.0675-9.1165 36.5431-19.5825C70.698 49.7864 77.6493 36.8155 79.8338 23.6893c.6601-4.0097-.6699-8.1359-3.5631-11.0485z" fill="#AE8F22"/></svg>